<svg width="64" height="63" viewBox="0 0 64 63" fill="none" xmlns="http://www.w3.org/2000/svg">
<path d="M55.3034 0.168339C56.0853 0.0716144 56.7811 0.647292 56.8568 1.42649L57.0706 3.62305C57.1467 4.40468 56.5723 5.09327 55.7998 5.19098C48.9897 6.05243 44.242 8.32652 41.086 10.7154C40.666 11.0336 40.6157 11.4893 40.7998 11.8667C40.9867 12.2497 41.4161 12.548 41.9583 12.5125C46.5552 12.2118 52.1696 12.951 58.5408 15.6484C59.266 15.9556 59.5812 16.8026 59.2572 17.5153L58.3441 19.5243C58.0192 20.2393 57.177 20.5478 56.4592 20.2462C49.5693 17.3513 43.9595 17.1291 39.9402 17.8251C39.4847 17.9039 39.2146 18.2314 39.1467 18.6176C39.0784 19.0072 39.2176 19.4522 39.5906 19.7463C43.4282 22.7689 47.361 27.5218 50.2455 34.642C50.5412 35.3722 50.1651 36.1942 49.432 36.4691L47.365 37.2444C46.6299 37.5199 45.8171 37.1433 45.5226 36.4229C42.7779 29.7001 39.1032 25.6154 35.8388 23.2335C35.1791 22.7524 34.2739 23.2254 34.2428 24.0732C33.9357 32.4096 32.9109 43.9012 29.4882 55.4754C29.2757 56.1941 29.8103 56.9202 30.5553 56.9202H62.1259C62.9097 56.9202 63.5453 57.5558 63.5453 58.3396V60.5469C63.5451 61.3306 62.9096 61.9654 62.1259 61.9654H1.57698C0.793321 61.9654 0.157769 61.3306 0.157593 60.5469V58.3396C0.157593 57.5558 0.793212 56.9202 1.57698 56.9202H22.952C23.4268 56.9202 23.8481 56.6165 23.9937 56.1665C27.7252 44.6228 28.8469 32.883 29.1839 24.2924C29.218 23.4198 28.2923 22.9092 27.6168 23.4165C24.4153 25.8226 20.8559 29.8692 18.1803 36.4229C17.8858 37.1434 17.073 37.5199 16.3379 37.2444L14.2708 36.4691C13.5377 36.1942 13.1616 35.3722 13.4574 34.642C16.3419 27.5218 20.2747 22.7689 24.1123 19.7463C24.4853 19.4522 24.6245 19.0072 24.5561 18.6176C24.4882 18.2314 24.2181 17.9039 23.7626 17.8251C19.7434 17.1291 14.1336 17.3513 7.24364 20.2462C6.52581 20.5478 5.68365 20.2393 5.35868 19.5243L4.44564 17.5153C4.12168 16.8026 4.43682 15.9556 5.16212 15.6484C11.5332 12.951 17.1477 12.2118 21.7446 12.5125C22.2868 12.548 22.7162 12.2497 22.9031 11.8667C23.0872 11.4893 23.0369 11.0336 22.6168 10.7154C19.4609 8.32652 14.7132 6.05243 7.90307 5.19098C7.13059 5.09327 6.5562 4.40468 6.63223 3.62305L6.846 1.42649C6.9218 0.64729 7.61754 0.0716145 8.39944 0.168339C20.3948 1.65229 27.3995 7.15828 30.6612 11.7435C30.9295 12.1207 31.3851 12.316 31.8514 12.316C32.3178 12.316 32.7734 12.1207 33.0416 11.7435C36.3034 7.15828 43.308 1.65229 55.3034 0.168339Z" fill="black" stroke="black" stroke-width="0.315362"/>
</svg>
